<?xml version="1.0" encoding="UTF-8" standalone="no"?><!DOCTYPE svg PUBLIC "-//W3C//DTD SVG 1.1//EN" "http://www.w3.org/Graphics/SVG/1.1/DTD/svg11.dtd"><svg width="100%" height="100%" viewBox="0 0 33 19" version="1.1" xmlns="http://www.w3.org/2000/svg" xmlns:xlink="http://www.w3.org/1999/xlink" xml:space="preserve" xmlns:serif="http://www.serif.com/" style="fill-rule:evenodd;clip-rule:evenodd;stroke-linejoin:round;stroke-miterlimit:2;"><rect id="logo" x="0" y="-0" width="32.268" height="18.339" style="fill:none;"/><g><g><path d="M8.518,6.221l-0,-3.704l1.234,0l0,11.127l-5.218,0l0,-7.423l3.984,-0Zm-0,6.205l-0,-5.02l-2.667,-0l0,5.004l2.667,0.016Z" style="fill:#b7b3db;fill-rule:nonzero;"/><path d="M12.452,6.237l-0,7.407l1.251,0l-0,-7.423l-1.251,0.016Zm-0,-3.72l-0,2.189l1.251,0l-0,-2.189l-1.251,0Z" style="fill:#b7b3db;fill-rule:nonzero;"/><path d="M20.929,13.644l-3.029,0l0,-6.238l-1.514,-0l-0,-1.185l1.514,-0l0,-2.19l1.251,0l0,2.19l1.778,-0l0,1.185l-1.778,-0l0,5.053l1.778,0l0,1.185Z" style="fill:#b7b3db;fill-rule:nonzero;"/><path d="M28.847,6.221l-0,10.452l-5.218,0l-0,-1.168l3.901,-0l-0,-1.861l-3.869,0l0,-7.423l1.219,-0l-0,6.205l2.65,0l-0,-6.205l1.317,-0Z" style="fill:#b7b3db;fill-rule:nonzero;"/></g><g><path d="M7.405,5.108l-0,-3.704l1.234,0l0,11.127l-5.218,0l0,-7.423l3.984,-0Zm-0,6.205l-0,-5.02l-2.667,-0l-0,5.004l2.667,0.016Z" style="fill:#7f1214;fill-rule:nonzero;"/><path d="M11.339,5.124l-0,7.407l1.251,0l-0,-7.423l-1.251,0.016Zm-0,-3.72l-0,2.189l1.251,0l-0,-2.189l-1.251,0Z" style="fill:#7f1214;fill-rule:nonzero;"/><path d="M19.816,12.531l-3.029,0l0,-6.238l-1.514,-0l-0,-1.185l1.514,-0l0,-2.19l1.251,0l0,2.19l1.778,-0l-0,1.185l-1.778,-0l0,5.053l1.778,0l-0,1.185Z" style="fill:#7f1214;fill-rule:nonzero;"/><path d="M27.734,5.108l-0,10.452l-5.219,0l0,-1.169l3.902,0l-0,-1.86l-3.869,0l0,-7.423l1.218,-0l0,6.205l2.651,0l-0,-6.205l1.317,-0Z" style="fill:#7f1214;fill-rule:nonzero;"/></g><g><path d="M7.972,5.675l0,-3.704l1.235,0l-0,11.128l-5.218,-0l-0,-7.424l3.983,0Zm0,6.206l0,-5.021l-2.667,0l0,5.004l2.667,0.017Z" style="fill:#fff;fill-rule:nonzero;"/><path d="M11.906,5.692l0,7.407l1.251,-0l0,-7.424l-1.251,0.017Zm0,-3.721l0,2.19l1.251,-0l0,-2.19l-1.251,0Z" style="fill:#fff;fill-rule:nonzero;"/><path d="M20.383,13.099l-3.028,-0l-0,-6.239l-1.515,0l0,-1.185l1.515,0l-0,-2.189l1.251,-0l-0,2.189l1.777,0l0,1.185l-1.777,0l-0,5.054l1.777,-0l0,1.185Z" style="fill:#fff;fill-rule:nonzero;"/><path d="M28.301,5.675l-0,10.453l-5.218,-0l-0,-1.169l3.901,-0l0,-1.86l-3.868,-0l-0,-7.424l1.218,0l-0,6.206l2.65,-0l0,-6.206l1.317,0Z" style="fill:#fff;fill-rule:nonzero;"/></g></g></svg>