<?xml version="1.0" encoding="UTF-8" standalone="no"?><!DOCTYPE svg PUBLIC "-//W3C//DTD SVG 1.1//EN" "http://www.w3.org/Graphics/SVG/1.1/DTD/svg11.dtd"><svg width="100%" height="100%" viewBox="0 0 15 15" version="1.1" xmlns="http://www.w3.org/2000/svg" xmlns:xlink="http://www.w3.org/1999/xlink" xml:space="preserve" xmlns:serif="http://www.serif.com/" style="fill-rule:evenodd;clip-rule:evenodd;stroke-linejoin:round;stroke-miterlimit:2;"><rect id="icon" x="-0" y="0" width="14.098" height="14.271" style="fill:none;"/><g><path d="M8.98,5.832l0,-3.704l1.235,0l-0,11.128l-5.218,-0l-0,-7.424l3.983,0Zm0,6.206l0,-5.021l-2.666,0l-0,5.004l2.666,0.017Z" style="fill:#b7b3db;fill-rule:nonzero;"/><path d="M7.867,4.719l0,-3.704l1.235,0l-0,11.128l-5.218,-0l-0,-7.424l3.983,-0Zm0,6.206l0,-5.021l-2.667,0l0,5.004l2.667,0.017Z" style="fill:#7f1214;fill-rule:nonzero;"/><path d="M8.435,5.286l-0,-3.703l1.234,-0l0,11.127l-5.218,0l0,-7.424l3.984,0Zm-0,6.206l-0,-5.02l-2.667,-0l-0,5.004l2.667,0.016Z" style="fill:#fff;fill-rule:nonzero;"/></g></svg>